<?xml version="1.0" encoding="utf-8"?>
<!-- Generator: Adobe Illustrator 19.0.0, SVG Export Plug-In . SVG Version: 6.00 Build 0)  -->
<svg version="1.1" id="Layer_1" xmlns="http://www.w3.org/2000/svg" xmlns:xlink="http://www.w3.org/1999/xlink" x="0px" y="0px"
	 viewBox="0 0 96 96" style="enable-background:new 0 0 96 96;" xml:space="preserve">
<style type="text/css">
	.st0{fill:#333333;}
</style>
<g id="XMLID_5_">
	<path id="XMLID_9_" class="st0" d="M61.1,21.8c-5.1,0-9.9,2.4-13.1,6.1c-3.2-3.7-8.1-6.1-13.1-6.1c-9,0-16,7.1-16,16
		c0,11,9.9,20,24.9,33.7l4.2,3.8l4.2-3.9c15-13.6,24.9-22.6,24.9-33.6C77.2,28.8,70.1,21.8,61.1,21.8z M48.3,67.1L48,67.4l-0.3-0.3
		c-13.9-12.6-23-20.9-23-29.3c0-5.8,4.4-10.2,10.2-10.2c4.5,0,8.9,2.9,10.4,6.9h5.5c1.5-4,5.9-6.9,10.4-6.9
		c5.8,0,10.2,4.4,10.2,10.2C71.3,46.2,62.2,54.5,48.3,67.1z"/>
</g>
</svg>
